<?xml version="1.0" encoding="UTF-8" standalone="no"?>
<!-- Generator: Adobe Illustrator 19.2.1, SVG Export Plug-In . SVG Version: 6.00 Build 0)  -->

<svg
   version="1.1"
   id="layer"
   x="0px"
   y="0px"
   viewBox="0 0 121.4 46.400002"
   xml:space="preserve"
   sodipodi:docname="AIA wordmark logo.svg"
   width="121.4"
   height="46.400002"
   inkscape:version="1.1 (c68e22c387, 2021-05-23)"
   xmlns:inkscape="http://www.inkscape.org/namespaces/inkscape"
   xmlns:sodipodi="http://sodipodi.sourceforge.net/DTD/sodipodi-0.dtd"
   xmlns="http://www.w3.org/2000/svg"
   xmlns:svg="http://www.w3.org/2000/svg"
   xmlns:rdf="http://www.w3.org/1999/02/22-rdf-syntax-ns#"
   xmlns:cc="http://creativecommons.org/ns#"
   xmlns:dc="http://purl.org/dc/elements/1.1/"><title
   id="title1837">AIA wordmark logo</title><defs
   id="defs9" /><sodipodi:namedview
   id="namedview7"
   pagecolor="#ffffff"
   bordercolor="#666666"
   borderopacity="1.0"
   inkscape:pageshadow="2"
   inkscape:pageopacity="0.0"
   inkscape:pagecheckerboard="0"
   showgrid="false"
   fit-margin-top="0"
   fit-margin-left="0"
   fit-margin-right="0"
   fit-margin-bottom="0"
   inkscape:zoom="4.9815951"
   inkscape:cx="72.567118"
   inkscape:cy="35.028941"
   inkscape:window-width="1920"
   inkscape:window-height="1001"
   inkscape:window-x="-9"
   inkscape:window-y="-9"
   inkscape:window-maximized="1"
   inkscape:current-layer="layer" />
<style
   type="text/css"
   id="style2">
	.st0{fill:#D41245;}
</style>
<path
   class="st0"
   d="m 96.2,26.8 c -2.8,0 -5,-0.3 -7.2,-1 2.6,-7.1 4.9,-13.5 5.1,-14.3 0.7,-1.9 1.2,-2.5 2,-2.5 0.8,0 1.3,0.6 2,2.5 0.3,0.8 2.6,7.2 5.2,14.2 -2,0.8 -4.3,1.1 -7.1,1.1 M 105.5,6.1 C 103.5,1.7 100.5,0 96.6,0 H 96.2 95.8 V 0 C 91.9,0 88.9,1.8 86.9,6.2 84.1,12.3 71.3,46.4 71.3,46.4 h 10.5 c 0,0 1.9,-5.5 4.2,-11.9 3.3,0.7 6.7,1.1 10.3,1.1 3.6,0 7.1,-0.4 10.3,-1.2 2.3,6.4 4.4,12 4.4,12 h 10.4 c -0.1,0 -13.1,-34.2 -15.9,-40.3 M 24.8,26.8 c -2.8,0 -5,-0.3 -7.2,-1 2.5,-7.1 4.8,-13.5 5.1,-14.3 0.7,-1.9 1.2,-2.5 2,-2.5 0.8,0 1.3,0.6 2,2.5 0.3,0.8 2.6,7.2 5.2,14.2 -2,0.8 -4.3,1.1 -7.1,1.1 M 25.2,0 H 24.8 24.4 C 20.5,0 17.5,1.8 15.5,6.2 12.7,12.3 0,46.4 0,46.4 h 10.5 c 0,0 1.9,-5.5 4.2,-11.9 3.2,0.7 6.7,1.1 10.3,1.1 3.6,0 7.1,-0.4 10.3,-1.2 2.3,6.4 4.4,12 4.4,12 h 10.4 c 0,0 -13,-34.2 -15.9,-40.2 C 32,1.8 29.1,0 25.2,0 M 55.5,46.4 H 65.6 V 0.6 H 55.5 Z"
   id="path4"
   sodipodi:nodetypes="cccsccccsccsccccscccccccscccccsccccscccccccccc" />
<metadata
   id="metadata1835"><rdf:RDF><cc:Work
       rdf:about=""><dc:title>AIA wordmark logo</dc:title></cc:Work></rdf:RDF></metadata></svg>
